G04 #@! TF.GenerationSoftware,KiCad,Pcbnew,(5.1.2-1)-1*
G04 #@! TF.CreationDate,2019-07-20T09:19:37-07:00*
G04 #@! TF.ProjectId,Buffer,42756666-6572-42e6-9b69-6361645f7063,rev?*
G04 #@! TF.SameCoordinates,Original*
G04 #@! TF.FileFunction,Copper,L2,Bot*
G04 #@! TF.FilePolarity,Positive*
%FSLAX46Y46*%
G04 Gerber Fmt 4.6, Leading zero omitted, Abs format (unit mm)*
G04 Created by KiCad (PCBNEW (5.1.2-1)-1) date 2019-07-20 09:19:37*
%MOMM*%
%LPD*%
G04 APERTURE LIST*
%ADD10O,1.700000X1.700000*%
%ADD11R,1.700000X1.700000*%
%ADD12O,1.600000X1.600000*%
%ADD13C,1.600000*%
%ADD14R,1.500000X1.050000*%
%ADD15O,1.500000X1.050000*%
%ADD16R,1.600000X1.600000*%
%ADD17C,0.254000*%
G04 APERTURE END LIST*
D10*
X160020000Y-78740000D03*
D11*
X162560000Y-78740000D03*
D12*
X152400000Y-93980000D03*
D13*
X162560000Y-93980000D03*
D12*
X157480000Y-99060000D03*
D13*
X147320000Y-99060000D03*
D12*
X139700000Y-99060000D03*
D13*
X139700000Y-88900000D03*
D12*
X144780000Y-81280000D03*
D13*
X154940000Y-81280000D03*
D12*
X134620000Y-99060000D03*
D13*
X134620000Y-88900000D03*
D14*
X147320000Y-88900000D03*
D15*
X147320000Y-91440000D03*
X147320000Y-90170000D03*
D10*
X162560000Y-86360000D03*
D11*
X162560000Y-88900000D03*
D10*
X129540000Y-88900000D03*
D11*
X129540000Y-86360000D03*
D13*
X157480000Y-86360000D03*
D16*
X154980000Y-86360000D03*
D13*
X134700000Y-83820000D03*
X139700000Y-83820000D03*
D17*
G36*
X164440001Y-100940000D02*
G01*
X127660000Y-100940000D01*
X127660000Y-99060000D01*
X133178057Y-99060000D01*
X133205764Y-99341309D01*
X133287818Y-99611808D01*
X133421068Y-99861101D01*
X133600392Y-100079608D01*
X133818899Y-100258932D01*
X134068192Y-100392182D01*
X134338691Y-100474236D01*
X134549508Y-100495000D01*
X134690492Y-100495000D01*
X134901309Y-100474236D01*
X135171808Y-100392182D01*
X135421101Y-100258932D01*
X135639608Y-100079608D01*
X135818932Y-99861101D01*
X135952182Y-99611808D01*
X136034236Y-99341309D01*
X136061943Y-99060000D01*
X138258057Y-99060000D01*
X138285764Y-99341309D01*
X138367818Y-99611808D01*
X138501068Y-99861101D01*
X138680392Y-100079608D01*
X138898899Y-100258932D01*
X139148192Y-100392182D01*
X139418691Y-100474236D01*
X139629508Y-100495000D01*
X139770492Y-100495000D01*
X139981309Y-100474236D01*
X140251808Y-100392182D01*
X140501101Y-100258932D01*
X140719608Y-100079608D01*
X140898932Y-99861101D01*
X141032182Y-99611808D01*
X141114236Y-99341309D01*
X141141943Y-99060000D01*
X141128023Y-98918665D01*
X145885000Y-98918665D01*
X145885000Y-99201335D01*
X145940147Y-99478574D01*
X146048320Y-99739727D01*
X146205363Y-99974759D01*
X146405241Y-100174637D01*
X146640273Y-100331680D01*
X146901426Y-100439853D01*
X147178665Y-100495000D01*
X147461335Y-100495000D01*
X147738574Y-100439853D01*
X147999727Y-100331680D01*
X148234759Y-100174637D01*
X148434637Y-99974759D01*
X148591680Y-99739727D01*
X148699853Y-99478574D01*
X148755000Y-99201335D01*
X148755000Y-99060000D01*
X156038057Y-99060000D01*
X156065764Y-99341309D01*
X156147818Y-99611808D01*
X156281068Y-99861101D01*
X156460392Y-100079608D01*
X156678899Y-100258932D01*
X156928192Y-100392182D01*
X157198691Y-100474236D01*
X157409508Y-100495000D01*
X157550492Y-100495000D01*
X157761309Y-100474236D01*
X158031808Y-100392182D01*
X158281101Y-100258932D01*
X158499608Y-100079608D01*
X158678932Y-99861101D01*
X158812182Y-99611808D01*
X158894236Y-99341309D01*
X158921943Y-99060000D01*
X158894236Y-98778691D01*
X158812182Y-98508192D01*
X158678932Y-98258899D01*
X158499608Y-98040392D01*
X158281101Y-97861068D01*
X158031808Y-97727818D01*
X157761309Y-97645764D01*
X157550492Y-97625000D01*
X157409508Y-97625000D01*
X157198691Y-97645764D01*
X156928192Y-97727818D01*
X156678899Y-97861068D01*
X156460392Y-98040392D01*
X156281068Y-98258899D01*
X156147818Y-98508192D01*
X156065764Y-98778691D01*
X156038057Y-99060000D01*
X148755000Y-99060000D01*
X148755000Y-98918665D01*
X148699853Y-98641426D01*
X148591680Y-98380273D01*
X148434637Y-98145241D01*
X148234759Y-97945363D01*
X147999727Y-97788320D01*
X147738574Y-97680147D01*
X147461335Y-97625000D01*
X147178665Y-97625000D01*
X146901426Y-97680147D01*
X146640273Y-97788320D01*
X146405241Y-97945363D01*
X146205363Y-98145241D01*
X146048320Y-98380273D01*
X145940147Y-98641426D01*
X145885000Y-98918665D01*
X141128023Y-98918665D01*
X141114236Y-98778691D01*
X141032182Y-98508192D01*
X140898932Y-98258899D01*
X140719608Y-98040392D01*
X140501101Y-97861068D01*
X140251808Y-97727818D01*
X139981309Y-97645764D01*
X139770492Y-97625000D01*
X139629508Y-97625000D01*
X139418691Y-97645764D01*
X139148192Y-97727818D01*
X138898899Y-97861068D01*
X138680392Y-98040392D01*
X138501068Y-98258899D01*
X138367818Y-98508192D01*
X138285764Y-98778691D01*
X138258057Y-99060000D01*
X136061943Y-99060000D01*
X136034236Y-98778691D01*
X135952182Y-98508192D01*
X135818932Y-98258899D01*
X135639608Y-98040392D01*
X135421101Y-97861068D01*
X135171808Y-97727818D01*
X134901309Y-97645764D01*
X134690492Y-97625000D01*
X134549508Y-97625000D01*
X134338691Y-97645764D01*
X134068192Y-97727818D01*
X133818899Y-97861068D01*
X133600392Y-98040392D01*
X133421068Y-98258899D01*
X133287818Y-98508192D01*
X133205764Y-98778691D01*
X133178057Y-99060000D01*
X127660000Y-99060000D01*
X127660000Y-93980000D01*
X150958057Y-93980000D01*
X150985764Y-94261309D01*
X151067818Y-94531808D01*
X151201068Y-94781101D01*
X151380392Y-94999608D01*
X151598899Y-95178932D01*
X151848192Y-95312182D01*
X152118691Y-95394236D01*
X152329508Y-95415000D01*
X152470492Y-95415000D01*
X152681309Y-95394236D01*
X152951808Y-95312182D01*
X153201101Y-95178932D01*
X153419608Y-94999608D01*
X153598932Y-94781101D01*
X153732182Y-94531808D01*
X153814236Y-94261309D01*
X153841943Y-93980000D01*
X153828023Y-93838665D01*
X161125000Y-93838665D01*
X161125000Y-94121335D01*
X161180147Y-94398574D01*
X161288320Y-94659727D01*
X161445363Y-94894759D01*
X161645241Y-95094637D01*
X161880273Y-95251680D01*
X162141426Y-95359853D01*
X162418665Y-95415000D01*
X162701335Y-95415000D01*
X162978574Y-95359853D01*
X163239727Y-95251680D01*
X163474759Y-95094637D01*
X163674637Y-94894759D01*
X163831680Y-94659727D01*
X163939853Y-94398574D01*
X163995000Y-94121335D01*
X163995000Y-93838665D01*
X163939853Y-93561426D01*
X163831680Y-93300273D01*
X163674637Y-93065241D01*
X163474759Y-92865363D01*
X163239727Y-92708320D01*
X162978574Y-92600147D01*
X162701335Y-92545000D01*
X162418665Y-92545000D01*
X162141426Y-92600147D01*
X161880273Y-92708320D01*
X161645241Y-92865363D01*
X161445363Y-93065241D01*
X161288320Y-93300273D01*
X161180147Y-93561426D01*
X161125000Y-93838665D01*
X153828023Y-93838665D01*
X153814236Y-93698691D01*
X153732182Y-93428192D01*
X153598932Y-93178899D01*
X153419608Y-92960392D01*
X153201101Y-92781068D01*
X152951808Y-92647818D01*
X152681309Y-92565764D01*
X152470492Y-92545000D01*
X152329508Y-92545000D01*
X152118691Y-92565764D01*
X151848192Y-92647818D01*
X151598899Y-92781068D01*
X151380392Y-92960392D01*
X151201068Y-93178899D01*
X151067818Y-93428192D01*
X150985764Y-93698691D01*
X150958057Y-93980000D01*
X127660000Y-93980000D01*
X127660000Y-88900000D01*
X128047815Y-88900000D01*
X128076487Y-89191111D01*
X128161401Y-89471034D01*
X128299294Y-89729014D01*
X128484866Y-89955134D01*
X128710986Y-90140706D01*
X128968966Y-90278599D01*
X129248889Y-90363513D01*
X129467050Y-90385000D01*
X129612950Y-90385000D01*
X129831111Y-90363513D01*
X130111034Y-90278599D01*
X130369014Y-90140706D01*
X130595134Y-89955134D01*
X130780706Y-89729014D01*
X130918599Y-89471034D01*
X131003513Y-89191111D01*
X131032185Y-88900000D01*
X131018265Y-88758665D01*
X133185000Y-88758665D01*
X133185000Y-89041335D01*
X133240147Y-89318574D01*
X133348320Y-89579727D01*
X133505363Y-89814759D01*
X133705241Y-90014637D01*
X133940273Y-90171680D01*
X134201426Y-90279853D01*
X134478665Y-90335000D01*
X134761335Y-90335000D01*
X135038574Y-90279853D01*
X135299727Y-90171680D01*
X135534759Y-90014637D01*
X135734637Y-89814759D01*
X135891680Y-89579727D01*
X135999853Y-89318574D01*
X136055000Y-89041335D01*
X136055000Y-88758665D01*
X138265000Y-88758665D01*
X138265000Y-89041335D01*
X138320147Y-89318574D01*
X138428320Y-89579727D01*
X138585363Y-89814759D01*
X138785241Y-90014637D01*
X139020273Y-90171680D01*
X139281426Y-90279853D01*
X139558665Y-90335000D01*
X139841335Y-90335000D01*
X140118574Y-90279853D01*
X140379727Y-90171680D01*
X140382241Y-90170000D01*
X145929388Y-90170000D01*
X145951785Y-90397400D01*
X146018115Y-90616060D01*
X146119105Y-90805000D01*
X146018115Y-90993940D01*
X145951785Y-91212600D01*
X145929388Y-91440000D01*
X145951785Y-91667400D01*
X146018115Y-91886060D01*
X146125829Y-92087579D01*
X146270788Y-92264212D01*
X146447421Y-92409171D01*
X146648940Y-92516885D01*
X146867600Y-92583215D01*
X147038021Y-92600000D01*
X147601979Y-92600000D01*
X147772400Y-92583215D01*
X147991060Y-92516885D01*
X148192579Y-92409171D01*
X148369212Y-92264212D01*
X148514171Y-92087579D01*
X148621885Y-91886060D01*
X148688215Y-91667400D01*
X148710612Y-91440000D01*
X148688215Y-91212600D01*
X148621885Y-90993940D01*
X148520895Y-90805000D01*
X148621885Y-90616060D01*
X148688215Y-90397400D01*
X148710612Y-90170000D01*
X148688215Y-89942600D01*
X148624907Y-89733902D01*
X148659502Y-89669180D01*
X148695812Y-89549482D01*
X148708072Y-89425000D01*
X148705000Y-89185750D01*
X148546250Y-89027000D01*
X147773109Y-89027000D01*
X147772400Y-89026785D01*
X147601979Y-89010000D01*
X147038021Y-89010000D01*
X146867600Y-89026785D01*
X146866891Y-89027000D01*
X146093750Y-89027000D01*
X145935000Y-89185750D01*
X145931928Y-89425000D01*
X145944188Y-89549482D01*
X145980498Y-89669180D01*
X146015093Y-89733902D01*
X145951785Y-89942600D01*
X145929388Y-90170000D01*
X140382241Y-90170000D01*
X140614759Y-90014637D01*
X140814637Y-89814759D01*
X140971680Y-89579727D01*
X141079853Y-89318574D01*
X141135000Y-89041335D01*
X141135000Y-88758665D01*
X141079853Y-88481426D01*
X141035770Y-88375000D01*
X145931928Y-88375000D01*
X145935000Y-88614250D01*
X146093750Y-88773000D01*
X147193000Y-88773000D01*
X147193000Y-87898750D01*
X147447000Y-87898750D01*
X147447000Y-88773000D01*
X148546250Y-88773000D01*
X148705000Y-88614250D01*
X148708072Y-88375000D01*
X148695812Y-88250518D01*
X148659502Y-88130820D01*
X148600537Y-88020506D01*
X148521185Y-87923815D01*
X148424494Y-87844463D01*
X148314180Y-87785498D01*
X148194482Y-87749188D01*
X148070000Y-87736928D01*
X147605750Y-87740000D01*
X147447000Y-87898750D01*
X147193000Y-87898750D01*
X147034250Y-87740000D01*
X146570000Y-87736928D01*
X146445518Y-87749188D01*
X146325820Y-87785498D01*
X146215506Y-87844463D01*
X146118815Y-87923815D01*
X146039463Y-88020506D01*
X145980498Y-88130820D01*
X145944188Y-88250518D01*
X145931928Y-88375000D01*
X141035770Y-88375000D01*
X140971680Y-88220273D01*
X140814637Y-87985241D01*
X140614759Y-87785363D01*
X140379727Y-87628320D01*
X140118574Y-87520147D01*
X139841335Y-87465000D01*
X139558665Y-87465000D01*
X139281426Y-87520147D01*
X139020273Y-87628320D01*
X138785241Y-87785363D01*
X138585363Y-87985241D01*
X138428320Y-88220273D01*
X138320147Y-88481426D01*
X138265000Y-88758665D01*
X136055000Y-88758665D01*
X135999853Y-88481426D01*
X135891680Y-88220273D01*
X135734637Y-87985241D01*
X135534759Y-87785363D01*
X135299727Y-87628320D01*
X135038574Y-87520147D01*
X134761335Y-87465000D01*
X134478665Y-87465000D01*
X134201426Y-87520147D01*
X133940273Y-87628320D01*
X133705241Y-87785363D01*
X133505363Y-87985241D01*
X133348320Y-88220273D01*
X133240147Y-88481426D01*
X133185000Y-88758665D01*
X131018265Y-88758665D01*
X131003513Y-88608889D01*
X130918599Y-88328966D01*
X130780706Y-88070986D01*
X130595134Y-87844866D01*
X130565313Y-87820393D01*
X130634180Y-87799502D01*
X130744494Y-87740537D01*
X130841185Y-87661185D01*
X130920537Y-87564494D01*
X130979502Y-87454180D01*
X131015812Y-87334482D01*
X131028072Y-87210000D01*
X131028072Y-85560000D01*
X153541928Y-85560000D01*
X153541928Y-87160000D01*
X153554188Y-87284482D01*
X153590498Y-87404180D01*
X153649463Y-87514494D01*
X153728815Y-87611185D01*
X153825506Y-87690537D01*
X153935820Y-87749502D01*
X154055518Y-87785812D01*
X154180000Y-87798072D01*
X155780000Y-87798072D01*
X155904482Y-87785812D01*
X156024180Y-87749502D01*
X156134494Y-87690537D01*
X156231185Y-87611185D01*
X156310537Y-87514494D01*
X156369502Y-87404180D01*
X156398661Y-87308057D01*
X156565241Y-87474637D01*
X156800273Y-87631680D01*
X157061426Y-87739853D01*
X157338665Y-87795000D01*
X157621335Y-87795000D01*
X157898574Y-87739853D01*
X158159727Y-87631680D01*
X158394759Y-87474637D01*
X158594637Y-87274759D01*
X158751680Y-87039727D01*
X158859853Y-86778574D01*
X158915000Y-86501335D01*
X158915000Y-86360000D01*
X161067815Y-86360000D01*
X161096487Y-86651111D01*
X161181401Y-86931034D01*
X161319294Y-87189014D01*
X161504866Y-87415134D01*
X161534687Y-87439607D01*
X161465820Y-87460498D01*
X161355506Y-87519463D01*
X161258815Y-87598815D01*
X161179463Y-87695506D01*
X161120498Y-87805820D01*
X161084188Y-87925518D01*
X161071928Y-88050000D01*
X161071928Y-89750000D01*
X161084188Y-89874482D01*
X161120498Y-89994180D01*
X161179463Y-90104494D01*
X161258815Y-90201185D01*
X161355506Y-90280537D01*
X161465820Y-90339502D01*
X161585518Y-90375812D01*
X161710000Y-90388072D01*
X163410000Y-90388072D01*
X163534482Y-90375812D01*
X163654180Y-90339502D01*
X163764494Y-90280537D01*
X163861185Y-90201185D01*
X163940537Y-90104494D01*
X163999502Y-89994180D01*
X164035812Y-89874482D01*
X164048072Y-89750000D01*
X164048072Y-88050000D01*
X164035812Y-87925518D01*
X163999502Y-87805820D01*
X163940537Y-87695506D01*
X163861185Y-87598815D01*
X163764494Y-87519463D01*
X163654180Y-87460498D01*
X163585313Y-87439607D01*
X163615134Y-87415134D01*
X163800706Y-87189014D01*
X163938599Y-86931034D01*
X164023513Y-86651111D01*
X164052185Y-86360000D01*
X164023513Y-86068889D01*
X163938599Y-85788966D01*
X163800706Y-85530986D01*
X163615134Y-85304866D01*
X163389014Y-85119294D01*
X163131034Y-84981401D01*
X162851111Y-84896487D01*
X162632950Y-84875000D01*
X162487050Y-84875000D01*
X162268889Y-84896487D01*
X161988966Y-84981401D01*
X161730986Y-85119294D01*
X161504866Y-85304866D01*
X161319294Y-85530986D01*
X161181401Y-85788966D01*
X161096487Y-86068889D01*
X161067815Y-86360000D01*
X158915000Y-86360000D01*
X158915000Y-86218665D01*
X158859853Y-85941426D01*
X158751680Y-85680273D01*
X158594637Y-85445241D01*
X158394759Y-85245363D01*
X158159727Y-85088320D01*
X157898574Y-84980147D01*
X157621335Y-84925000D01*
X157338665Y-84925000D01*
X157061426Y-84980147D01*
X156800273Y-85088320D01*
X156565241Y-85245363D01*
X156398661Y-85411943D01*
X156369502Y-85315820D01*
X156310537Y-85205506D01*
X156231185Y-85108815D01*
X156134494Y-85029463D01*
X156024180Y-84970498D01*
X155904482Y-84934188D01*
X155780000Y-84921928D01*
X154180000Y-84921928D01*
X154055518Y-84934188D01*
X153935820Y-84970498D01*
X153825506Y-85029463D01*
X153728815Y-85108815D01*
X153649463Y-85205506D01*
X153590498Y-85315820D01*
X153554188Y-85435518D01*
X153541928Y-85560000D01*
X131028072Y-85560000D01*
X131028072Y-85510000D01*
X131015812Y-85385518D01*
X130979502Y-85265820D01*
X130920537Y-85155506D01*
X130841185Y-85058815D01*
X130744494Y-84979463D01*
X130634180Y-84920498D01*
X130514482Y-84884188D01*
X130390000Y-84871928D01*
X128690000Y-84871928D01*
X128565518Y-84884188D01*
X128445820Y-84920498D01*
X128335506Y-84979463D01*
X128238815Y-85058815D01*
X128159463Y-85155506D01*
X128100498Y-85265820D01*
X128064188Y-85385518D01*
X128051928Y-85510000D01*
X128051928Y-87210000D01*
X128064188Y-87334482D01*
X128100498Y-87454180D01*
X128159463Y-87564494D01*
X128238815Y-87661185D01*
X128335506Y-87740537D01*
X128445820Y-87799502D01*
X128514687Y-87820393D01*
X128484866Y-87844866D01*
X128299294Y-88070986D01*
X128161401Y-88328966D01*
X128076487Y-88608889D01*
X128047815Y-88900000D01*
X127660000Y-88900000D01*
X127660000Y-83678665D01*
X133265000Y-83678665D01*
X133265000Y-83961335D01*
X133320147Y-84238574D01*
X133428320Y-84499727D01*
X133585363Y-84734759D01*
X133785241Y-84934637D01*
X134020273Y-85091680D01*
X134281426Y-85199853D01*
X134558665Y-85255000D01*
X134841335Y-85255000D01*
X135118574Y-85199853D01*
X135379727Y-85091680D01*
X135614759Y-84934637D01*
X135814637Y-84734759D01*
X135971680Y-84499727D01*
X136079853Y-84238574D01*
X136135000Y-83961335D01*
X136135000Y-83678665D01*
X138265000Y-83678665D01*
X138265000Y-83961335D01*
X138320147Y-84238574D01*
X138428320Y-84499727D01*
X138585363Y-84734759D01*
X138785241Y-84934637D01*
X139020273Y-85091680D01*
X139281426Y-85199853D01*
X139558665Y-85255000D01*
X139841335Y-85255000D01*
X140118574Y-85199853D01*
X140379727Y-85091680D01*
X140614759Y-84934637D01*
X140814637Y-84734759D01*
X140971680Y-84499727D01*
X141079853Y-84238574D01*
X141135000Y-83961335D01*
X141135000Y-83678665D01*
X141079853Y-83401426D01*
X140971680Y-83140273D01*
X140814637Y-82905241D01*
X140614759Y-82705363D01*
X140379727Y-82548320D01*
X140118574Y-82440147D01*
X139841335Y-82385000D01*
X139558665Y-82385000D01*
X139281426Y-82440147D01*
X139020273Y-82548320D01*
X138785241Y-82705363D01*
X138585363Y-82905241D01*
X138428320Y-83140273D01*
X138320147Y-83401426D01*
X138265000Y-83678665D01*
X136135000Y-83678665D01*
X136079853Y-83401426D01*
X135971680Y-83140273D01*
X135814637Y-82905241D01*
X135614759Y-82705363D01*
X135379727Y-82548320D01*
X135118574Y-82440147D01*
X134841335Y-82385000D01*
X134558665Y-82385000D01*
X134281426Y-82440147D01*
X134020273Y-82548320D01*
X133785241Y-82705363D01*
X133585363Y-82905241D01*
X133428320Y-83140273D01*
X133320147Y-83401426D01*
X133265000Y-83678665D01*
X127660000Y-83678665D01*
X127660000Y-81280000D01*
X143338057Y-81280000D01*
X143365764Y-81561309D01*
X143447818Y-81831808D01*
X143581068Y-82081101D01*
X143760392Y-82299608D01*
X143978899Y-82478932D01*
X144228192Y-82612182D01*
X144498691Y-82694236D01*
X144709508Y-82715000D01*
X144850492Y-82715000D01*
X145061309Y-82694236D01*
X145331808Y-82612182D01*
X145581101Y-82478932D01*
X145799608Y-82299608D01*
X145821689Y-82272702D01*
X154126903Y-82272702D01*
X154198486Y-82516671D01*
X154453996Y-82637571D01*
X154728184Y-82706300D01*
X155010512Y-82720217D01*
X155290130Y-82678787D01*
X155556292Y-82583603D01*
X155681514Y-82516671D01*
X155753097Y-82272702D01*
X154940000Y-81459605D01*
X154126903Y-82272702D01*
X145821689Y-82272702D01*
X145978932Y-82081101D01*
X146112182Y-81831808D01*
X146194236Y-81561309D01*
X146214998Y-81350512D01*
X153499783Y-81350512D01*
X153541213Y-81630130D01*
X153636397Y-81896292D01*
X153703329Y-82021514D01*
X153947298Y-82093097D01*
X154760395Y-81280000D01*
X155119605Y-81280000D01*
X155932702Y-82093097D01*
X156176671Y-82021514D01*
X156297571Y-81766004D01*
X156366300Y-81491816D01*
X156380217Y-81209488D01*
X156338787Y-80929870D01*
X156243603Y-80663708D01*
X156176671Y-80538486D01*
X155932702Y-80466903D01*
X155119605Y-81280000D01*
X154760395Y-81280000D01*
X153947298Y-80466903D01*
X153703329Y-80538486D01*
X153582429Y-80793996D01*
X153513700Y-81068184D01*
X153499783Y-81350512D01*
X146214998Y-81350512D01*
X146221943Y-81280000D01*
X146194236Y-80998691D01*
X146112182Y-80728192D01*
X145978932Y-80478899D01*
X145821690Y-80287298D01*
X154126903Y-80287298D01*
X154940000Y-81100395D01*
X155753097Y-80287298D01*
X155681514Y-80043329D01*
X155426004Y-79922429D01*
X155151816Y-79853700D01*
X154869488Y-79839783D01*
X154589870Y-79881213D01*
X154323708Y-79976397D01*
X154198486Y-80043329D01*
X154126903Y-80287298D01*
X145821690Y-80287298D01*
X145799608Y-80260392D01*
X145581101Y-80081068D01*
X145331808Y-79947818D01*
X145061309Y-79865764D01*
X144850492Y-79845000D01*
X144709508Y-79845000D01*
X144498691Y-79865764D01*
X144228192Y-79947818D01*
X143978899Y-80081068D01*
X143760392Y-80260392D01*
X143581068Y-80478899D01*
X143447818Y-80728192D01*
X143365764Y-80998691D01*
X143338057Y-81280000D01*
X127660000Y-81280000D01*
X127660000Y-79096891D01*
X158578519Y-79096891D01*
X158675843Y-79371252D01*
X158824822Y-79621355D01*
X159019731Y-79837588D01*
X159253080Y-80011641D01*
X159515901Y-80136825D01*
X159663110Y-80181476D01*
X159893000Y-80060155D01*
X159893000Y-78867000D01*
X158699186Y-78867000D01*
X158578519Y-79096891D01*
X127660000Y-79096891D01*
X127660000Y-78383109D01*
X158578519Y-78383109D01*
X158699186Y-78613000D01*
X159893000Y-78613000D01*
X159893000Y-77419845D01*
X160147000Y-77419845D01*
X160147000Y-78613000D01*
X160167000Y-78613000D01*
X160167000Y-78867000D01*
X160147000Y-78867000D01*
X160147000Y-80060155D01*
X160376890Y-80181476D01*
X160524099Y-80136825D01*
X160786920Y-80011641D01*
X161020269Y-79837588D01*
X161096034Y-79753534D01*
X161120498Y-79834180D01*
X161179463Y-79944494D01*
X161258815Y-80041185D01*
X161355506Y-80120537D01*
X161465820Y-80179502D01*
X161585518Y-80215812D01*
X161710000Y-80228072D01*
X163410000Y-80228072D01*
X163534482Y-80215812D01*
X163654180Y-80179502D01*
X163764494Y-80120537D01*
X163861185Y-80041185D01*
X163940537Y-79944494D01*
X163999502Y-79834180D01*
X164035812Y-79714482D01*
X164048072Y-79590000D01*
X164048072Y-77890000D01*
X164035812Y-77765518D01*
X163999502Y-77645820D01*
X163940537Y-77535506D01*
X163861185Y-77438815D01*
X163764494Y-77359463D01*
X163654180Y-77300498D01*
X163534482Y-77264188D01*
X163410000Y-77251928D01*
X161710000Y-77251928D01*
X161585518Y-77264188D01*
X161465820Y-77300498D01*
X161355506Y-77359463D01*
X161258815Y-77438815D01*
X161179463Y-77535506D01*
X161120498Y-77645820D01*
X161096034Y-77726466D01*
X161020269Y-77642412D01*
X160786920Y-77468359D01*
X160524099Y-77343175D01*
X160376890Y-77298524D01*
X160147000Y-77419845D01*
X159893000Y-77419845D01*
X159663110Y-77298524D01*
X159515901Y-77343175D01*
X159253080Y-77468359D01*
X159019731Y-77642412D01*
X158824822Y-77858645D01*
X158675843Y-78108748D01*
X158578519Y-78383109D01*
X127660000Y-78383109D01*
X127660000Y-76860000D01*
X164440000Y-76860000D01*
X164440001Y-100940000D01*
X164440001Y-100940000D01*
G37*
X164440001Y-100940000D02*
X127660000Y-100940000D01*
X127660000Y-99060000D01*
X133178057Y-99060000D01*
X133205764Y-99341309D01*
X133287818Y-99611808D01*
X133421068Y-99861101D01*
X133600392Y-100079608D01*
X133818899Y-100258932D01*
X134068192Y-100392182D01*
X134338691Y-100474236D01*
X134549508Y-100495000D01*
X134690492Y-100495000D01*
X134901309Y-100474236D01*
X135171808Y-100392182D01*
X135421101Y-100258932D01*
X135639608Y-100079608D01*
X135818932Y-99861101D01*
X135952182Y-99611808D01*
X136034236Y-99341309D01*
X136061943Y-99060000D01*
X138258057Y-99060000D01*
X138285764Y-99341309D01*
X138367818Y-99611808D01*
X138501068Y-99861101D01*
X138680392Y-100079608D01*
X138898899Y-100258932D01*
X139148192Y-100392182D01*
X139418691Y-100474236D01*
X139629508Y-100495000D01*
X139770492Y-100495000D01*
X139981309Y-100474236D01*
X140251808Y-100392182D01*
X140501101Y-100258932D01*
X140719608Y-100079608D01*
X140898932Y-99861101D01*
X141032182Y-99611808D01*
X141114236Y-99341309D01*
X141141943Y-99060000D01*
X141128023Y-98918665D01*
X145885000Y-98918665D01*
X145885000Y-99201335D01*
X145940147Y-99478574D01*
X146048320Y-99739727D01*
X146205363Y-99974759D01*
X146405241Y-100174637D01*
X146640273Y-100331680D01*
X146901426Y-100439853D01*
X147178665Y-100495000D01*
X147461335Y-100495000D01*
X147738574Y-100439853D01*
X147999727Y-100331680D01*
X148234759Y-100174637D01*
X148434637Y-99974759D01*
X148591680Y-99739727D01*
X148699853Y-99478574D01*
X148755000Y-99201335D01*
X148755000Y-99060000D01*
X156038057Y-99060000D01*
X156065764Y-99341309D01*
X156147818Y-99611808D01*
X156281068Y-99861101D01*
X156460392Y-100079608D01*
X156678899Y-100258932D01*
X156928192Y-100392182D01*
X157198691Y-100474236D01*
X157409508Y-100495000D01*
X157550492Y-100495000D01*
X157761309Y-100474236D01*
X158031808Y-100392182D01*
X158281101Y-100258932D01*
X158499608Y-100079608D01*
X158678932Y-99861101D01*
X158812182Y-99611808D01*
X158894236Y-99341309D01*
X158921943Y-99060000D01*
X158894236Y-98778691D01*
X158812182Y-98508192D01*
X158678932Y-98258899D01*
X158499608Y-98040392D01*
X158281101Y-97861068D01*
X158031808Y-97727818D01*
X157761309Y-97645764D01*
X157550492Y-97625000D01*
X157409508Y-97625000D01*
X157198691Y-97645764D01*
X156928192Y-97727818D01*
X156678899Y-97861068D01*
X156460392Y-98040392D01*
X156281068Y-98258899D01*
X156147818Y-98508192D01*
X156065764Y-98778691D01*
X156038057Y-99060000D01*
X148755000Y-99060000D01*
X148755000Y-98918665D01*
X148699853Y-98641426D01*
X148591680Y-98380273D01*
X148434637Y-98145241D01*
X148234759Y-97945363D01*
X147999727Y-97788320D01*
X147738574Y-97680147D01*
X147461335Y-97625000D01*
X147178665Y-97625000D01*
X146901426Y-97680147D01*
X146640273Y-97788320D01*
X146405241Y-97945363D01*
X146205363Y-98145241D01*
X146048320Y-98380273D01*
X145940147Y-98641426D01*
X145885000Y-98918665D01*
X141128023Y-98918665D01*
X141114236Y-98778691D01*
X141032182Y-98508192D01*
X140898932Y-98258899D01*
X140719608Y-98040392D01*
X140501101Y-97861068D01*
X140251808Y-97727818D01*
X139981309Y-97645764D01*
X139770492Y-97625000D01*
X139629508Y-97625000D01*
X139418691Y-97645764D01*
X139148192Y-97727818D01*
X138898899Y-97861068D01*
X138680392Y-98040392D01*
X138501068Y-98258899D01*
X138367818Y-98508192D01*
X138285764Y-98778691D01*
X138258057Y-99060000D01*
X136061943Y-99060000D01*
X136034236Y-98778691D01*
X135952182Y-98508192D01*
X135818932Y-98258899D01*
X135639608Y-98040392D01*
X135421101Y-97861068D01*
X135171808Y-97727818D01*
X134901309Y-97645764D01*
X134690492Y-97625000D01*
X134549508Y-97625000D01*
X134338691Y-97645764D01*
X134068192Y-97727818D01*
X133818899Y-97861068D01*
X133600392Y-98040392D01*
X133421068Y-98258899D01*
X133287818Y-98508192D01*
X133205764Y-98778691D01*
X133178057Y-99060000D01*
X127660000Y-99060000D01*
X127660000Y-93980000D01*
X150958057Y-93980000D01*
X150985764Y-94261309D01*
X151067818Y-94531808D01*
X151201068Y-94781101D01*
X151380392Y-94999608D01*
X151598899Y-95178932D01*
X151848192Y-95312182D01*
X152118691Y-95394236D01*
X152329508Y-95415000D01*
X152470492Y-95415000D01*
X152681309Y-95394236D01*
X152951808Y-95312182D01*
X153201101Y-95178932D01*
X153419608Y-94999608D01*
X153598932Y-94781101D01*
X153732182Y-94531808D01*
X153814236Y-94261309D01*
X153841943Y-93980000D01*
X153828023Y-93838665D01*
X161125000Y-93838665D01*
X161125000Y-94121335D01*
X161180147Y-94398574D01*
X161288320Y-94659727D01*
X161445363Y-94894759D01*
X161645241Y-95094637D01*
X161880273Y-95251680D01*
X162141426Y-95359853D01*
X162418665Y-95415000D01*
X162701335Y-95415000D01*
X162978574Y-95359853D01*
X163239727Y-95251680D01*
X163474759Y-95094637D01*
X163674637Y-94894759D01*
X163831680Y-94659727D01*
X163939853Y-94398574D01*
X163995000Y-94121335D01*
X163995000Y-93838665D01*
X163939853Y-93561426D01*
X163831680Y-93300273D01*
X163674637Y-93065241D01*
X163474759Y-92865363D01*
X163239727Y-92708320D01*
X162978574Y-92600147D01*
X162701335Y-92545000D01*
X162418665Y-92545000D01*
X162141426Y-92600147D01*
X161880273Y-92708320D01*
X161645241Y-92865363D01*
X161445363Y-93065241D01*
X161288320Y-93300273D01*
X161180147Y-93561426D01*
X161125000Y-93838665D01*
X153828023Y-93838665D01*
X153814236Y-93698691D01*
X153732182Y-93428192D01*
X153598932Y-93178899D01*
X153419608Y-92960392D01*
X153201101Y-92781068D01*
X152951808Y-92647818D01*
X152681309Y-92565764D01*
X152470492Y-92545000D01*
X152329508Y-92545000D01*
X152118691Y-92565764D01*
X151848192Y-92647818D01*
X151598899Y-92781068D01*
X151380392Y-92960392D01*
X151201068Y-93178899D01*
X151067818Y-93428192D01*
X150985764Y-93698691D01*
X150958057Y-93980000D01*
X127660000Y-93980000D01*
X127660000Y-88900000D01*
X128047815Y-88900000D01*
X128076487Y-89191111D01*
X128161401Y-89471034D01*
X128299294Y-89729014D01*
X128484866Y-89955134D01*
X128710986Y-90140706D01*
X128968966Y-90278599D01*
X129248889Y-90363513D01*
X129467050Y-90385000D01*
X129612950Y-90385000D01*
X129831111Y-90363513D01*
X130111034Y-90278599D01*
X130369014Y-90140706D01*
X130595134Y-89955134D01*
X130780706Y-89729014D01*
X130918599Y-89471034D01*
X131003513Y-89191111D01*
X131032185Y-88900000D01*
X131018265Y-88758665D01*
X133185000Y-88758665D01*
X133185000Y-89041335D01*
X133240147Y-89318574D01*
X133348320Y-89579727D01*
X133505363Y-89814759D01*
X133705241Y-90014637D01*
X133940273Y-90171680D01*
X134201426Y-90279853D01*
X134478665Y-90335000D01*
X134761335Y-90335000D01*
X135038574Y-90279853D01*
X135299727Y-90171680D01*
X135534759Y-90014637D01*
X135734637Y-89814759D01*
X135891680Y-89579727D01*
X135999853Y-89318574D01*
X136055000Y-89041335D01*
X136055000Y-88758665D01*
X138265000Y-88758665D01*
X138265000Y-89041335D01*
X138320147Y-89318574D01*
X138428320Y-89579727D01*
X138585363Y-89814759D01*
X138785241Y-90014637D01*
X139020273Y-90171680D01*
X139281426Y-90279853D01*
X139558665Y-90335000D01*
X139841335Y-90335000D01*
X140118574Y-90279853D01*
X140379727Y-90171680D01*
X140382241Y-90170000D01*
X145929388Y-90170000D01*
X145951785Y-90397400D01*
X146018115Y-90616060D01*
X146119105Y-90805000D01*
X146018115Y-90993940D01*
X145951785Y-91212600D01*
X145929388Y-91440000D01*
X145951785Y-91667400D01*
X146018115Y-91886060D01*
X146125829Y-92087579D01*
X146270788Y-92264212D01*
X146447421Y-92409171D01*
X146648940Y-92516885D01*
X146867600Y-92583215D01*
X147038021Y-92600000D01*
X147601979Y-92600000D01*
X147772400Y-92583215D01*
X147991060Y-92516885D01*
X148192579Y-92409171D01*
X148369212Y-92264212D01*
X148514171Y-92087579D01*
X148621885Y-91886060D01*
X148688215Y-91667400D01*
X148710612Y-91440000D01*
X148688215Y-91212600D01*
X148621885Y-90993940D01*
X148520895Y-90805000D01*
X148621885Y-90616060D01*
X148688215Y-90397400D01*
X148710612Y-90170000D01*
X148688215Y-89942600D01*
X148624907Y-89733902D01*
X148659502Y-89669180D01*
X148695812Y-89549482D01*
X148708072Y-89425000D01*
X148705000Y-89185750D01*
X148546250Y-89027000D01*
X147773109Y-89027000D01*
X147772400Y-89026785D01*
X147601979Y-89010000D01*
X147038021Y-89010000D01*
X146867600Y-89026785D01*
X146866891Y-89027000D01*
X146093750Y-89027000D01*
X145935000Y-89185750D01*
X145931928Y-89425000D01*
X145944188Y-89549482D01*
X145980498Y-89669180D01*
X146015093Y-89733902D01*
X145951785Y-89942600D01*
X145929388Y-90170000D01*
X140382241Y-90170000D01*
X140614759Y-90014637D01*
X140814637Y-89814759D01*
X140971680Y-89579727D01*
X141079853Y-89318574D01*
X141135000Y-89041335D01*
X141135000Y-88758665D01*
X141079853Y-88481426D01*
X141035770Y-88375000D01*
X145931928Y-88375000D01*
X145935000Y-88614250D01*
X146093750Y-88773000D01*
X147193000Y-88773000D01*
X147193000Y-87898750D01*
X147447000Y-87898750D01*
X147447000Y-88773000D01*
X148546250Y-88773000D01*
X148705000Y-88614250D01*
X148708072Y-88375000D01*
X148695812Y-88250518D01*
X148659502Y-88130820D01*
X148600537Y-88020506D01*
X148521185Y-87923815D01*
X148424494Y-87844463D01*
X148314180Y-87785498D01*
X148194482Y-87749188D01*
X148070000Y-87736928D01*
X147605750Y-87740000D01*
X147447000Y-87898750D01*
X147193000Y-87898750D01*
X147034250Y-87740000D01*
X146570000Y-87736928D01*
X146445518Y-87749188D01*
X146325820Y-87785498D01*
X146215506Y-87844463D01*
X146118815Y-87923815D01*
X146039463Y-88020506D01*
X145980498Y-88130820D01*
X145944188Y-88250518D01*
X145931928Y-88375000D01*
X141035770Y-88375000D01*
X140971680Y-88220273D01*
X140814637Y-87985241D01*
X140614759Y-87785363D01*
X140379727Y-87628320D01*
X140118574Y-87520147D01*
X139841335Y-87465000D01*
X139558665Y-87465000D01*
X139281426Y-87520147D01*
X139020273Y-87628320D01*
X138785241Y-87785363D01*
X138585363Y-87985241D01*
X138428320Y-88220273D01*
X138320147Y-88481426D01*
X138265000Y-88758665D01*
X136055000Y-88758665D01*
X135999853Y-88481426D01*
X135891680Y-88220273D01*
X135734637Y-87985241D01*
X135534759Y-87785363D01*
X135299727Y-87628320D01*
X135038574Y-87520147D01*
X134761335Y-87465000D01*
X134478665Y-87465000D01*
X134201426Y-87520147D01*
X133940273Y-87628320D01*
X133705241Y-87785363D01*
X133505363Y-87985241D01*
X133348320Y-88220273D01*
X133240147Y-88481426D01*
X133185000Y-88758665D01*
X131018265Y-88758665D01*
X131003513Y-88608889D01*
X130918599Y-88328966D01*
X130780706Y-88070986D01*
X130595134Y-87844866D01*
X130565313Y-87820393D01*
X130634180Y-87799502D01*
X130744494Y-87740537D01*
X130841185Y-87661185D01*
X130920537Y-87564494D01*
X130979502Y-87454180D01*
X131015812Y-87334482D01*
X131028072Y-87210000D01*
X131028072Y-85560000D01*
X153541928Y-85560000D01*
X153541928Y-87160000D01*
X153554188Y-87284482D01*
X153590498Y-87404180D01*
X153649463Y-87514494D01*
X153728815Y-87611185D01*
X153825506Y-87690537D01*
X153935820Y-87749502D01*
X154055518Y-87785812D01*
X154180000Y-87798072D01*
X155780000Y-87798072D01*
X155904482Y-87785812D01*
X156024180Y-87749502D01*
X156134494Y-87690537D01*
X156231185Y-87611185D01*
X156310537Y-87514494D01*
X156369502Y-87404180D01*
X156398661Y-87308057D01*
X156565241Y-87474637D01*
X156800273Y-87631680D01*
X157061426Y-87739853D01*
X157338665Y-87795000D01*
X157621335Y-87795000D01*
X157898574Y-87739853D01*
X158159727Y-87631680D01*
X158394759Y-87474637D01*
X158594637Y-87274759D01*
X158751680Y-87039727D01*
X158859853Y-86778574D01*
X158915000Y-86501335D01*
X158915000Y-86360000D01*
X161067815Y-86360000D01*
X161096487Y-86651111D01*
X161181401Y-86931034D01*
X161319294Y-87189014D01*
X161504866Y-87415134D01*
X161534687Y-87439607D01*
X161465820Y-87460498D01*
X161355506Y-87519463D01*
X161258815Y-87598815D01*
X161179463Y-87695506D01*
X161120498Y-87805820D01*
X161084188Y-87925518D01*
X161071928Y-88050000D01*
X161071928Y-89750000D01*
X161084188Y-89874482D01*
X161120498Y-89994180D01*
X161179463Y-90104494D01*
X161258815Y-90201185D01*
X161355506Y-90280537D01*
X161465820Y-90339502D01*
X161585518Y-90375812D01*
X161710000Y-90388072D01*
X163410000Y-90388072D01*
X163534482Y-90375812D01*
X163654180Y-90339502D01*
X163764494Y-90280537D01*
X163861185Y-90201185D01*
X163940537Y-90104494D01*
X163999502Y-89994180D01*
X164035812Y-89874482D01*
X164048072Y-89750000D01*
X164048072Y-88050000D01*
X164035812Y-87925518D01*
X163999502Y-87805820D01*
X163940537Y-87695506D01*
X163861185Y-87598815D01*
X163764494Y-87519463D01*
X163654180Y-87460498D01*
X163585313Y-87439607D01*
X163615134Y-87415134D01*
X163800706Y-87189014D01*
X163938599Y-86931034D01*
X164023513Y-86651111D01*
X164052185Y-86360000D01*
X164023513Y-86068889D01*
X163938599Y-85788966D01*
X163800706Y-85530986D01*
X163615134Y-85304866D01*
X163389014Y-85119294D01*
X163131034Y-84981401D01*
X162851111Y-84896487D01*
X162632950Y-84875000D01*
X162487050Y-84875000D01*
X162268889Y-84896487D01*
X161988966Y-84981401D01*
X161730986Y-85119294D01*
X161504866Y-85304866D01*
X161319294Y-85530986D01*
X161181401Y-85788966D01*
X161096487Y-86068889D01*
X161067815Y-86360000D01*
X158915000Y-86360000D01*
X158915000Y-86218665D01*
X158859853Y-85941426D01*
X158751680Y-85680273D01*
X158594637Y-85445241D01*
X158394759Y-85245363D01*
X158159727Y-85088320D01*
X157898574Y-84980147D01*
X157621335Y-84925000D01*
X157338665Y-84925000D01*
X157061426Y-84980147D01*
X156800273Y-85088320D01*
X156565241Y-85245363D01*
X156398661Y-85411943D01*
X156369502Y-85315820D01*
X156310537Y-85205506D01*
X156231185Y-85108815D01*
X156134494Y-85029463D01*
X156024180Y-84970498D01*
X155904482Y-84934188D01*
X155780000Y-84921928D01*
X154180000Y-84921928D01*
X154055518Y-84934188D01*
X153935820Y-84970498D01*
X153825506Y-85029463D01*
X153728815Y-85108815D01*
X153649463Y-85205506D01*
X153590498Y-85315820D01*
X153554188Y-85435518D01*
X153541928Y-85560000D01*
X131028072Y-85560000D01*
X131028072Y-85510000D01*
X131015812Y-85385518D01*
X130979502Y-85265820D01*
X130920537Y-85155506D01*
X130841185Y-85058815D01*
X130744494Y-84979463D01*
X130634180Y-84920498D01*
X130514482Y-84884188D01*
X130390000Y-84871928D01*
X128690000Y-84871928D01*
X128565518Y-84884188D01*
X128445820Y-84920498D01*
X128335506Y-84979463D01*
X128238815Y-85058815D01*
X128159463Y-85155506D01*
X128100498Y-85265820D01*
X128064188Y-85385518D01*
X128051928Y-85510000D01*
X128051928Y-87210000D01*
X128064188Y-87334482D01*
X128100498Y-87454180D01*
X128159463Y-87564494D01*
X128238815Y-87661185D01*
X128335506Y-87740537D01*
X128445820Y-87799502D01*
X128514687Y-87820393D01*
X128484866Y-87844866D01*
X128299294Y-88070986D01*
X128161401Y-88328966D01*
X128076487Y-88608889D01*
X128047815Y-88900000D01*
X127660000Y-88900000D01*
X127660000Y-83678665D01*
X133265000Y-83678665D01*
X133265000Y-83961335D01*
X133320147Y-84238574D01*
X133428320Y-84499727D01*
X133585363Y-84734759D01*
X133785241Y-84934637D01*
X134020273Y-85091680D01*
X134281426Y-85199853D01*
X134558665Y-85255000D01*
X134841335Y-85255000D01*
X135118574Y-85199853D01*
X135379727Y-85091680D01*
X135614759Y-84934637D01*
X135814637Y-84734759D01*
X135971680Y-84499727D01*
X136079853Y-84238574D01*
X136135000Y-83961335D01*
X136135000Y-83678665D01*
X138265000Y-83678665D01*
X138265000Y-83961335D01*
X138320147Y-84238574D01*
X138428320Y-84499727D01*
X138585363Y-84734759D01*
X138785241Y-84934637D01*
X139020273Y-85091680D01*
X139281426Y-85199853D01*
X139558665Y-85255000D01*
X139841335Y-85255000D01*
X140118574Y-85199853D01*
X140379727Y-85091680D01*
X140614759Y-84934637D01*
X140814637Y-84734759D01*
X140971680Y-84499727D01*
X141079853Y-84238574D01*
X141135000Y-83961335D01*
X141135000Y-83678665D01*
X141079853Y-83401426D01*
X140971680Y-83140273D01*
X140814637Y-82905241D01*
X140614759Y-82705363D01*
X140379727Y-82548320D01*
X140118574Y-82440147D01*
X139841335Y-82385000D01*
X139558665Y-82385000D01*
X139281426Y-82440147D01*
X139020273Y-82548320D01*
X138785241Y-82705363D01*
X138585363Y-82905241D01*
X138428320Y-83140273D01*
X138320147Y-83401426D01*
X138265000Y-83678665D01*
X136135000Y-83678665D01*
X136079853Y-83401426D01*
X135971680Y-83140273D01*
X135814637Y-82905241D01*
X135614759Y-82705363D01*
X135379727Y-82548320D01*
X135118574Y-82440147D01*
X134841335Y-82385000D01*
X134558665Y-82385000D01*
X134281426Y-82440147D01*
X134020273Y-82548320D01*
X133785241Y-82705363D01*
X133585363Y-82905241D01*
X133428320Y-83140273D01*
X133320147Y-83401426D01*
X133265000Y-83678665D01*
X127660000Y-83678665D01*
X127660000Y-81280000D01*
X143338057Y-81280000D01*
X143365764Y-81561309D01*
X143447818Y-81831808D01*
X143581068Y-82081101D01*
X143760392Y-82299608D01*
X143978899Y-82478932D01*
X144228192Y-82612182D01*
X144498691Y-82694236D01*
X144709508Y-82715000D01*
X144850492Y-82715000D01*
X145061309Y-82694236D01*
X145331808Y-82612182D01*
X145581101Y-82478932D01*
X145799608Y-82299608D01*
X145821689Y-82272702D01*
X154126903Y-82272702D01*
X154198486Y-82516671D01*
X154453996Y-82637571D01*
X154728184Y-82706300D01*
X155010512Y-82720217D01*
X155290130Y-82678787D01*
X155556292Y-82583603D01*
X155681514Y-82516671D01*
X155753097Y-82272702D01*
X154940000Y-81459605D01*
X154126903Y-82272702D01*
X145821689Y-82272702D01*
X145978932Y-82081101D01*
X146112182Y-81831808D01*
X146194236Y-81561309D01*
X146214998Y-81350512D01*
X153499783Y-81350512D01*
X153541213Y-81630130D01*
X153636397Y-81896292D01*
X153703329Y-82021514D01*
X153947298Y-82093097D01*
X154760395Y-81280000D01*
X155119605Y-81280000D01*
X155932702Y-82093097D01*
X156176671Y-82021514D01*
X156297571Y-81766004D01*
X156366300Y-81491816D01*
X156380217Y-81209488D01*
X156338787Y-80929870D01*
X156243603Y-80663708D01*
X156176671Y-80538486D01*
X155932702Y-80466903D01*
X155119605Y-81280000D01*
X154760395Y-81280000D01*
X153947298Y-80466903D01*
X153703329Y-80538486D01*
X153582429Y-80793996D01*
X153513700Y-81068184D01*
X153499783Y-81350512D01*
X146214998Y-81350512D01*
X146221943Y-81280000D01*
X146194236Y-80998691D01*
X146112182Y-80728192D01*
X145978932Y-80478899D01*
X145821690Y-80287298D01*
X154126903Y-80287298D01*
X154940000Y-81100395D01*
X155753097Y-80287298D01*
X155681514Y-80043329D01*
X155426004Y-79922429D01*
X155151816Y-79853700D01*
X154869488Y-79839783D01*
X154589870Y-79881213D01*
X154323708Y-79976397D01*
X154198486Y-80043329D01*
X154126903Y-80287298D01*
X145821690Y-80287298D01*
X145799608Y-80260392D01*
X145581101Y-80081068D01*
X145331808Y-79947818D01*
X145061309Y-79865764D01*
X144850492Y-79845000D01*
X144709508Y-79845000D01*
X144498691Y-79865764D01*
X144228192Y-79947818D01*
X143978899Y-80081068D01*
X143760392Y-80260392D01*
X143581068Y-80478899D01*
X143447818Y-80728192D01*
X143365764Y-80998691D01*
X143338057Y-81280000D01*
X127660000Y-81280000D01*
X127660000Y-79096891D01*
X158578519Y-79096891D01*
X158675843Y-79371252D01*
X158824822Y-79621355D01*
X159019731Y-79837588D01*
X159253080Y-80011641D01*
X159515901Y-80136825D01*
X159663110Y-80181476D01*
X159893000Y-80060155D01*
X159893000Y-78867000D01*
X158699186Y-78867000D01*
X158578519Y-79096891D01*
X127660000Y-79096891D01*
X127660000Y-78383109D01*
X158578519Y-78383109D01*
X158699186Y-78613000D01*
X159893000Y-78613000D01*
X159893000Y-77419845D01*
X160147000Y-77419845D01*
X160147000Y-78613000D01*
X160167000Y-78613000D01*
X160167000Y-78867000D01*
X160147000Y-78867000D01*
X160147000Y-80060155D01*
X160376890Y-80181476D01*
X160524099Y-80136825D01*
X160786920Y-80011641D01*
X161020269Y-79837588D01*
X161096034Y-79753534D01*
X161120498Y-79834180D01*
X161179463Y-79944494D01*
X161258815Y-80041185D01*
X161355506Y-80120537D01*
X161465820Y-80179502D01*
X161585518Y-80215812D01*
X161710000Y-80228072D01*
X163410000Y-80228072D01*
X163534482Y-80215812D01*
X163654180Y-80179502D01*
X163764494Y-80120537D01*
X163861185Y-80041185D01*
X163940537Y-79944494D01*
X163999502Y-79834180D01*
X164035812Y-79714482D01*
X164048072Y-79590000D01*
X164048072Y-77890000D01*
X164035812Y-77765518D01*
X163999502Y-77645820D01*
X163940537Y-77535506D01*
X163861185Y-77438815D01*
X163764494Y-77359463D01*
X163654180Y-77300498D01*
X163534482Y-77264188D01*
X163410000Y-77251928D01*
X161710000Y-77251928D01*
X161585518Y-77264188D01*
X161465820Y-77300498D01*
X161355506Y-77359463D01*
X161258815Y-77438815D01*
X161179463Y-77535506D01*
X161120498Y-77645820D01*
X161096034Y-77726466D01*
X161020269Y-77642412D01*
X160786920Y-77468359D01*
X160524099Y-77343175D01*
X160376890Y-77298524D01*
X160147000Y-77419845D01*
X159893000Y-77419845D01*
X159663110Y-77298524D01*
X159515901Y-77343175D01*
X159253080Y-77468359D01*
X159019731Y-77642412D01*
X158824822Y-77858645D01*
X158675843Y-78108748D01*
X158578519Y-78383109D01*
X127660000Y-78383109D01*
X127660000Y-76860000D01*
X164440000Y-76860000D01*
X164440001Y-100940000D01*
M02*
