G04 #@! TF.GenerationSoftware,KiCad,Pcbnew,(5.1.2-1)-1*
G04 #@! TF.CreationDate,2019-07-20T09:19:37-07:00*
G04 #@! TF.ProjectId,Buffer,42756666-6572-42e6-9b69-6361645f7063,rev?*
G04 #@! TF.SameCoordinates,Original*
G04 #@! TF.FileFunction,Legend,Top*
G04 #@! TF.FilePolarity,Positive*
%FSLAX46Y46*%
G04 Gerber Fmt 4.6, Leading zero omitted, Abs format (unit mm)*
G04 Created by KiCad (PCBNEW (5.1.2-1)-1) date 2019-07-20 09:19:37*
%MOMM*%
%LPD*%
G04 APERTURE LIST*
%ADD10C,0.127000*%
%ADD11C,0.120000*%
%ADD12C,0.150000*%
G04 APERTURE END LIST*
D10*
X159251952Y-81225571D02*
X160026047Y-81225571D01*
X159639000Y-81612619D02*
X159639000Y-80838523D01*
X162680952Y-81225571D02*
X163455047Y-81225571D01*
X131572000Y-89607571D02*
X131535714Y-89680142D01*
X131535714Y-89789000D01*
X131572000Y-89897857D01*
X131644571Y-89970428D01*
X131717142Y-90006714D01*
X131862285Y-90043000D01*
X131971142Y-90043000D01*
X132116285Y-90006714D01*
X132188857Y-89970428D01*
X132261428Y-89897857D01*
X132297714Y-89789000D01*
X132297714Y-89716428D01*
X132261428Y-89607571D01*
X132225142Y-89571285D01*
X131971142Y-89571285D01*
X131971142Y-89716428D01*
X132297714Y-89244714D02*
X131535714Y-89244714D01*
X132297714Y-88809285D01*
X131535714Y-88809285D01*
X132297714Y-88446428D02*
X131535714Y-88446428D01*
X131535714Y-88265000D01*
X131572000Y-88156142D01*
X131644571Y-88083571D01*
X131717142Y-88047285D01*
X131862285Y-88011000D01*
X131971142Y-88011000D01*
X132116285Y-88047285D01*
X132188857Y-88083571D01*
X132261428Y-88156142D01*
X132297714Y-88265000D01*
X132297714Y-88446428D01*
X159766000Y-89607571D02*
X159729714Y-89680142D01*
X159729714Y-89789000D01*
X159766000Y-89897857D01*
X159838571Y-89970428D01*
X159911142Y-90006714D01*
X160056285Y-90043000D01*
X160165142Y-90043000D01*
X160310285Y-90006714D01*
X160382857Y-89970428D01*
X160455428Y-89897857D01*
X160491714Y-89789000D01*
X160491714Y-89716428D01*
X160455428Y-89607571D01*
X160419142Y-89571285D01*
X160165142Y-89571285D01*
X160165142Y-89716428D01*
X160491714Y-89244714D02*
X159729714Y-89244714D01*
X160491714Y-88809285D01*
X159729714Y-88809285D01*
X160491714Y-88446428D02*
X159729714Y-88446428D01*
X159729714Y-88265000D01*
X159766000Y-88156142D01*
X159838571Y-88083571D01*
X159911142Y-88047285D01*
X160056285Y-88011000D01*
X160165142Y-88011000D01*
X160310285Y-88047285D01*
X160382857Y-88083571D01*
X160455428Y-88156142D01*
X160491714Y-88265000D01*
X160491714Y-88446428D01*
D11*
X163890000Y-77410000D02*
X163890000Y-78740000D01*
X162560000Y-77410000D02*
X163890000Y-77410000D01*
X161290000Y-77410000D02*
X161290000Y-80070000D01*
X161290000Y-80070000D02*
X158690000Y-80070000D01*
X161290000Y-77410000D02*
X158690000Y-77410000D01*
X158690000Y-77410000D02*
X158690000Y-80070000D01*
X153440000Y-93980000D02*
X154210000Y-93980000D01*
X161520000Y-93980000D02*
X160750000Y-93980000D01*
X154210000Y-95350000D02*
X160750000Y-95350000D01*
X154210000Y-92610000D02*
X154210000Y-95350000D01*
X160750000Y-92610000D02*
X154210000Y-92610000D01*
X160750000Y-95350000D02*
X160750000Y-92610000D01*
X156440000Y-99060000D02*
X155670000Y-99060000D01*
X148360000Y-99060000D02*
X149130000Y-99060000D01*
X155670000Y-97690000D02*
X149130000Y-97690000D01*
X155670000Y-100430000D02*
X155670000Y-97690000D01*
X149130000Y-100430000D02*
X155670000Y-100430000D01*
X149130000Y-97690000D02*
X149130000Y-100430000D01*
X139700000Y-98020000D02*
X139700000Y-97250000D01*
X139700000Y-89940000D02*
X139700000Y-90710000D01*
X141070000Y-97250000D02*
X141070000Y-90710000D01*
X138330000Y-97250000D02*
X141070000Y-97250000D01*
X138330000Y-90710000D02*
X138330000Y-97250000D01*
X141070000Y-90710000D02*
X138330000Y-90710000D01*
X145820000Y-81280000D02*
X146590000Y-81280000D01*
X153900000Y-81280000D02*
X153130000Y-81280000D01*
X146590000Y-82650000D02*
X153130000Y-82650000D01*
X146590000Y-79910000D02*
X146590000Y-82650000D01*
X153130000Y-79910000D02*
X146590000Y-79910000D01*
X153130000Y-82650000D02*
X153130000Y-79910000D01*
X134620000Y-98020000D02*
X134620000Y-97250000D01*
X134620000Y-89940000D02*
X134620000Y-90710000D01*
X135990000Y-97250000D02*
X135990000Y-90710000D01*
X133250000Y-97250000D02*
X135990000Y-97250000D01*
X133250000Y-90710000D02*
X133250000Y-97250000D01*
X135990000Y-90710000D02*
X133250000Y-90710000D01*
X145481522Y-92008478D02*
G75*
G03X149920000Y-90170000I1838478J1838478D01*
G01*
X145481522Y-88331522D02*
G75*
G02X149920000Y-90170000I1838478J-1838478D01*
G01*
X145470000Y-88370000D02*
X145470000Y-91970000D01*
X163890000Y-90230000D02*
X162560000Y-90230000D01*
X163890000Y-88900000D02*
X163890000Y-90230000D01*
X163890000Y-87630000D02*
X161230000Y-87630000D01*
X161230000Y-87630000D02*
X161230000Y-85030000D01*
X163890000Y-87630000D02*
X163890000Y-85030000D01*
X163890000Y-85030000D02*
X161230000Y-85030000D01*
X128210000Y-85030000D02*
X129540000Y-85030000D01*
X128210000Y-86360000D02*
X128210000Y-85030000D01*
X128210000Y-87630000D02*
X130870000Y-87630000D01*
X130870000Y-87630000D02*
X130870000Y-90230000D01*
X128210000Y-87630000D02*
X128210000Y-90230000D01*
X128210000Y-90230000D02*
X130870000Y-90230000D01*
X153675225Y-84635000D02*
X153675225Y-85135000D01*
X153425225Y-84885000D02*
X153925225Y-84885000D01*
X158831000Y-86076000D02*
X158831000Y-86644000D01*
X158791000Y-85842000D02*
X158791000Y-86878000D01*
X158751000Y-85683000D02*
X158751000Y-87037000D01*
X158711000Y-85555000D02*
X158711000Y-87165000D01*
X158671000Y-85445000D02*
X158671000Y-87275000D01*
X158631000Y-85349000D02*
X158631000Y-87371000D01*
X158591000Y-85262000D02*
X158591000Y-87458000D01*
X158551000Y-85182000D02*
X158551000Y-87538000D01*
X158511000Y-87400000D02*
X158511000Y-87611000D01*
X158511000Y-85109000D02*
X158511000Y-85320000D01*
X158471000Y-87400000D02*
X158471000Y-87679000D01*
X158471000Y-85041000D02*
X158471000Y-85320000D01*
X158431000Y-87400000D02*
X158431000Y-87743000D01*
X158431000Y-84977000D02*
X158431000Y-85320000D01*
X158391000Y-87400000D02*
X158391000Y-87803000D01*
X158391000Y-84917000D02*
X158391000Y-85320000D01*
X158351000Y-87400000D02*
X158351000Y-87860000D01*
X158351000Y-84860000D02*
X158351000Y-85320000D01*
X158311000Y-87400000D02*
X158311000Y-87914000D01*
X158311000Y-84806000D02*
X158311000Y-85320000D01*
X158271000Y-87400000D02*
X158271000Y-87965000D01*
X158271000Y-84755000D02*
X158271000Y-85320000D01*
X158231000Y-87400000D02*
X158231000Y-88013000D01*
X158231000Y-84707000D02*
X158231000Y-85320000D01*
X158191000Y-87400000D02*
X158191000Y-88059000D01*
X158191000Y-84661000D02*
X158191000Y-85320000D01*
X158151000Y-87400000D02*
X158151000Y-88103000D01*
X158151000Y-84617000D02*
X158151000Y-85320000D01*
X158111000Y-87400000D02*
X158111000Y-88145000D01*
X158111000Y-84575000D02*
X158111000Y-85320000D01*
X158071000Y-87400000D02*
X158071000Y-88186000D01*
X158071000Y-84534000D02*
X158071000Y-85320000D01*
X158031000Y-87400000D02*
X158031000Y-88224000D01*
X158031000Y-84496000D02*
X158031000Y-85320000D01*
X157991000Y-87400000D02*
X157991000Y-88261000D01*
X157991000Y-84459000D02*
X157991000Y-85320000D01*
X157951000Y-87400000D02*
X157951000Y-88297000D01*
X157951000Y-84423000D02*
X157951000Y-85320000D01*
X157911000Y-87400000D02*
X157911000Y-88331000D01*
X157911000Y-84389000D02*
X157911000Y-85320000D01*
X157871000Y-87400000D02*
X157871000Y-88364000D01*
X157871000Y-84356000D02*
X157871000Y-85320000D01*
X157831000Y-87400000D02*
X157831000Y-88395000D01*
X157831000Y-84325000D02*
X157831000Y-85320000D01*
X157791000Y-87400000D02*
X157791000Y-88425000D01*
X157791000Y-84295000D02*
X157791000Y-85320000D01*
X157751000Y-87400000D02*
X157751000Y-88455000D01*
X157751000Y-84265000D02*
X157751000Y-85320000D01*
X157711000Y-87400000D02*
X157711000Y-88482000D01*
X157711000Y-84238000D02*
X157711000Y-85320000D01*
X157671000Y-87400000D02*
X157671000Y-88509000D01*
X157671000Y-84211000D02*
X157671000Y-85320000D01*
X157631000Y-87400000D02*
X157631000Y-88535000D01*
X157631000Y-84185000D02*
X157631000Y-85320000D01*
X157591000Y-87400000D02*
X157591000Y-88560000D01*
X157591000Y-84160000D02*
X157591000Y-85320000D01*
X157551000Y-87400000D02*
X157551000Y-88584000D01*
X157551000Y-84136000D02*
X157551000Y-85320000D01*
X157511000Y-87400000D02*
X157511000Y-88607000D01*
X157511000Y-84113000D02*
X157511000Y-85320000D01*
X157471000Y-87400000D02*
X157471000Y-88628000D01*
X157471000Y-84092000D02*
X157471000Y-85320000D01*
X157431000Y-87400000D02*
X157431000Y-88650000D01*
X157431000Y-84070000D02*
X157431000Y-85320000D01*
X157391000Y-87400000D02*
X157391000Y-88670000D01*
X157391000Y-84050000D02*
X157391000Y-85320000D01*
X157351000Y-87400000D02*
X157351000Y-88689000D01*
X157351000Y-84031000D02*
X157351000Y-85320000D01*
X157311000Y-87400000D02*
X157311000Y-88708000D01*
X157311000Y-84012000D02*
X157311000Y-85320000D01*
X157271000Y-87400000D02*
X157271000Y-88725000D01*
X157271000Y-83995000D02*
X157271000Y-85320000D01*
X157231000Y-87400000D02*
X157231000Y-88742000D01*
X157231000Y-83978000D02*
X157231000Y-85320000D01*
X157191000Y-87400000D02*
X157191000Y-88758000D01*
X157191000Y-83962000D02*
X157191000Y-85320000D01*
X157151000Y-87400000D02*
X157151000Y-88774000D01*
X157151000Y-83946000D02*
X157151000Y-85320000D01*
X157111000Y-87400000D02*
X157111000Y-88788000D01*
X157111000Y-83932000D02*
X157111000Y-85320000D01*
X157071000Y-87400000D02*
X157071000Y-88802000D01*
X157071000Y-83918000D02*
X157071000Y-85320000D01*
X157031000Y-87400000D02*
X157031000Y-88815000D01*
X157031000Y-83905000D02*
X157031000Y-85320000D01*
X156991000Y-87400000D02*
X156991000Y-88828000D01*
X156991000Y-83892000D02*
X156991000Y-85320000D01*
X156951000Y-87400000D02*
X156951000Y-88840000D01*
X156951000Y-83880000D02*
X156951000Y-85320000D01*
X156910000Y-87400000D02*
X156910000Y-88851000D01*
X156910000Y-83869000D02*
X156910000Y-85320000D01*
X156870000Y-87400000D02*
X156870000Y-88861000D01*
X156870000Y-83859000D02*
X156870000Y-85320000D01*
X156830000Y-87400000D02*
X156830000Y-88871000D01*
X156830000Y-83849000D02*
X156830000Y-85320000D01*
X156790000Y-87400000D02*
X156790000Y-88880000D01*
X156790000Y-83840000D02*
X156790000Y-85320000D01*
X156750000Y-87400000D02*
X156750000Y-88888000D01*
X156750000Y-83832000D02*
X156750000Y-85320000D01*
X156710000Y-87400000D02*
X156710000Y-88896000D01*
X156710000Y-83824000D02*
X156710000Y-85320000D01*
X156670000Y-87400000D02*
X156670000Y-88903000D01*
X156670000Y-83817000D02*
X156670000Y-85320000D01*
X156630000Y-87400000D02*
X156630000Y-88910000D01*
X156630000Y-83810000D02*
X156630000Y-85320000D01*
X156590000Y-87400000D02*
X156590000Y-88916000D01*
X156590000Y-83804000D02*
X156590000Y-85320000D01*
X156550000Y-87400000D02*
X156550000Y-88921000D01*
X156550000Y-83799000D02*
X156550000Y-85320000D01*
X156510000Y-87400000D02*
X156510000Y-88925000D01*
X156510000Y-83795000D02*
X156510000Y-85320000D01*
X156470000Y-87400000D02*
X156470000Y-88929000D01*
X156470000Y-83791000D02*
X156470000Y-85320000D01*
X156430000Y-83787000D02*
X156430000Y-88933000D01*
X156390000Y-83784000D02*
X156390000Y-88936000D01*
X156350000Y-83782000D02*
X156350000Y-88938000D01*
X156310000Y-83781000D02*
X156310000Y-88939000D01*
X156270000Y-83780000D02*
X156270000Y-88940000D01*
X156230000Y-83780000D02*
X156230000Y-88940000D01*
X158850000Y-86360000D02*
G75*
G03X158850000Y-86360000I-2620000J0D01*
G01*
X133580000Y-85690000D02*
X133580000Y-81950000D01*
X140820000Y-85690000D02*
X140820000Y-81950000D01*
X140820000Y-81950000D02*
X133580000Y-81950000D01*
X140820000Y-85690000D02*
X133580000Y-85690000D01*
D12*
X160829666Y-80732380D02*
X160829666Y-81446666D01*
X160782047Y-81589523D01*
X160686809Y-81684761D01*
X160543952Y-81732380D01*
X160448714Y-81732380D01*
X161210619Y-80732380D02*
X161829666Y-80732380D01*
X161496333Y-81113333D01*
X161639190Y-81113333D01*
X161734428Y-81160952D01*
X161782047Y-81208571D01*
X161829666Y-81303809D01*
X161829666Y-81541904D01*
X161782047Y-81637142D01*
X161734428Y-81684761D01*
X161639190Y-81732380D01*
X161353476Y-81732380D01*
X161258238Y-81684761D01*
X161210619Y-81637142D01*
X156337095Y-79192380D02*
X156337095Y-78192380D01*
X156575190Y-78192380D01*
X156718047Y-78240000D01*
X156813285Y-78335238D01*
X156860904Y-78430476D01*
X156908523Y-78620952D01*
X156908523Y-78763809D01*
X156860904Y-78954285D01*
X156813285Y-79049523D01*
X156718047Y-79144761D01*
X156575190Y-79192380D01*
X156337095Y-79192380D01*
X157908523Y-79097142D02*
X157860904Y-79144761D01*
X157718047Y-79192380D01*
X157622809Y-79192380D01*
X157479952Y-79144761D01*
X157384714Y-79049523D01*
X157337095Y-78954285D01*
X157289476Y-78763809D01*
X157289476Y-78620952D01*
X157337095Y-78430476D01*
X157384714Y-78335238D01*
X157479952Y-78240000D01*
X157622809Y-78192380D01*
X157718047Y-78192380D01*
X157860904Y-78240000D01*
X157908523Y-78287619D01*
X158710333Y-92273380D02*
X158377000Y-91797190D01*
X158138904Y-92273380D02*
X158138904Y-91273380D01*
X158519857Y-91273380D01*
X158615095Y-91321000D01*
X158662714Y-91368619D01*
X158710333Y-91463857D01*
X158710333Y-91606714D01*
X158662714Y-91701952D01*
X158615095Y-91749571D01*
X158519857Y-91797190D01*
X158138904Y-91797190D01*
X159615095Y-91273380D02*
X159138904Y-91273380D01*
X159091285Y-91749571D01*
X159138904Y-91701952D01*
X159234142Y-91654333D01*
X159472238Y-91654333D01*
X159567476Y-91701952D01*
X159615095Y-91749571D01*
X159662714Y-91844809D01*
X159662714Y-92082904D01*
X159615095Y-92178142D01*
X159567476Y-92225761D01*
X159472238Y-92273380D01*
X159234142Y-92273380D01*
X159138904Y-92225761D01*
X159091285Y-92178142D01*
X152233333Y-97353380D02*
X151900000Y-96877190D01*
X151661904Y-97353380D02*
X151661904Y-96353380D01*
X152042857Y-96353380D01*
X152138095Y-96401000D01*
X152185714Y-96448619D01*
X152233333Y-96543857D01*
X152233333Y-96686714D01*
X152185714Y-96781952D01*
X152138095Y-96829571D01*
X152042857Y-96877190D01*
X151661904Y-96877190D01*
X153090476Y-96686714D02*
X153090476Y-97353380D01*
X152852380Y-96305761D02*
X152614285Y-97020047D01*
X153233333Y-97020047D01*
X151804761Y-99512380D02*
X151233333Y-99512380D01*
X151519047Y-99512380D02*
X151519047Y-98512380D01*
X151423809Y-98655238D01*
X151328571Y-98750476D01*
X151233333Y-98798095D01*
X152423809Y-98512380D02*
X152519047Y-98512380D01*
X152614285Y-98560000D01*
X152661904Y-98607619D01*
X152709523Y-98702857D01*
X152757142Y-98893333D01*
X152757142Y-99131428D01*
X152709523Y-99321904D01*
X152661904Y-99417142D01*
X152614285Y-99464761D01*
X152519047Y-99512380D01*
X152423809Y-99512380D01*
X152328571Y-99464761D01*
X152280952Y-99417142D01*
X152233333Y-99321904D01*
X152185714Y-99131428D01*
X152185714Y-98893333D01*
X152233333Y-98702857D01*
X152280952Y-98607619D01*
X152328571Y-98560000D01*
X152423809Y-98512380D01*
X153185714Y-99512380D02*
X153185714Y-98512380D01*
X153280952Y-99131428D02*
X153566666Y-99512380D01*
X153566666Y-98845714D02*
X153185714Y-99226666D01*
X142522380Y-94146666D02*
X142046190Y-94480000D01*
X142522380Y-94718095D02*
X141522380Y-94718095D01*
X141522380Y-94337142D01*
X141570000Y-94241904D01*
X141617619Y-94194285D01*
X141712857Y-94146666D01*
X141855714Y-94146666D01*
X141950952Y-94194285D01*
X141998571Y-94241904D01*
X142046190Y-94337142D01*
X142046190Y-94718095D01*
X141522380Y-93813333D02*
X141522380Y-93194285D01*
X141903333Y-93527619D01*
X141903333Y-93384761D01*
X141950952Y-93289523D01*
X141998571Y-93241904D01*
X142093809Y-93194285D01*
X142331904Y-93194285D01*
X142427142Y-93241904D01*
X142474761Y-93289523D01*
X142522380Y-93384761D01*
X142522380Y-93670476D01*
X142474761Y-93765714D01*
X142427142Y-93813333D01*
X139247619Y-95551428D02*
X139200000Y-95503809D01*
X139152380Y-95408571D01*
X139152380Y-95170476D01*
X139200000Y-95075238D01*
X139247619Y-95027619D01*
X139342857Y-94980000D01*
X139438095Y-94980000D01*
X139580952Y-95027619D01*
X140152380Y-95599047D01*
X140152380Y-94980000D01*
X140057142Y-94551428D02*
X140104761Y-94503809D01*
X140152380Y-94551428D01*
X140104761Y-94599047D01*
X140057142Y-94551428D01*
X140152380Y-94551428D01*
X139247619Y-94122857D02*
X139200000Y-94075238D01*
X139152380Y-93980000D01*
X139152380Y-93741904D01*
X139200000Y-93646666D01*
X139247619Y-93599047D01*
X139342857Y-93551428D01*
X139438095Y-93551428D01*
X139580952Y-93599047D01*
X140152380Y-94170476D01*
X140152380Y-93551428D01*
X140152380Y-93122857D02*
X139152380Y-93122857D01*
X139866666Y-92789523D01*
X139152380Y-92456190D01*
X140152380Y-92456190D01*
X149693333Y-79192380D02*
X149360000Y-78716190D01*
X149121904Y-79192380D02*
X149121904Y-78192380D01*
X149502857Y-78192380D01*
X149598095Y-78240000D01*
X149645714Y-78287619D01*
X149693333Y-78382857D01*
X149693333Y-78525714D01*
X149645714Y-78620952D01*
X149598095Y-78668571D01*
X149502857Y-78716190D01*
X149121904Y-78716190D01*
X150074285Y-78287619D02*
X150121904Y-78240000D01*
X150217142Y-78192380D01*
X150455238Y-78192380D01*
X150550476Y-78240000D01*
X150598095Y-78287619D01*
X150645714Y-78382857D01*
X150645714Y-78478095D01*
X150598095Y-78620952D01*
X150026666Y-79192380D01*
X150645714Y-79192380D01*
X148288571Y-80827619D02*
X148336190Y-80780000D01*
X148431428Y-80732380D01*
X148669523Y-80732380D01*
X148764761Y-80780000D01*
X148812380Y-80827619D01*
X148860000Y-80922857D01*
X148860000Y-81018095D01*
X148812380Y-81160952D01*
X148240952Y-81732380D01*
X148860000Y-81732380D01*
X149288571Y-81637142D02*
X149336190Y-81684761D01*
X149288571Y-81732380D01*
X149240952Y-81684761D01*
X149288571Y-81637142D01*
X149288571Y-81732380D01*
X149717142Y-80827619D02*
X149764761Y-80780000D01*
X149860000Y-80732380D01*
X150098095Y-80732380D01*
X150193333Y-80780000D01*
X150240952Y-80827619D01*
X150288571Y-80922857D01*
X150288571Y-81018095D01*
X150240952Y-81160952D01*
X149669523Y-81732380D01*
X150288571Y-81732380D01*
X150717142Y-81732380D02*
X150717142Y-80732380D01*
X151050476Y-81446666D01*
X151383809Y-80732380D01*
X151383809Y-81732380D01*
X137442380Y-94146666D02*
X136966190Y-94480000D01*
X137442380Y-94718095D02*
X136442380Y-94718095D01*
X136442380Y-94337142D01*
X136490000Y-94241904D01*
X136537619Y-94194285D01*
X136632857Y-94146666D01*
X136775714Y-94146666D01*
X136870952Y-94194285D01*
X136918571Y-94241904D01*
X136966190Y-94337142D01*
X136966190Y-94718095D01*
X137442380Y-93194285D02*
X137442380Y-93765714D01*
X137442380Y-93480000D02*
X136442380Y-93480000D01*
X136585238Y-93575238D01*
X136680476Y-93670476D01*
X136728095Y-93765714D01*
X135072380Y-94837142D02*
X135072380Y-95408571D01*
X135072380Y-95122857D02*
X134072380Y-95122857D01*
X134215238Y-95218095D01*
X134310476Y-95313333D01*
X134358095Y-95408571D01*
X134072380Y-94218095D02*
X134072380Y-94122857D01*
X134120000Y-94027619D01*
X134167619Y-93980000D01*
X134262857Y-93932380D01*
X134453333Y-93884761D01*
X134691428Y-93884761D01*
X134881904Y-93932380D01*
X134977142Y-93980000D01*
X135024761Y-94027619D01*
X135072380Y-94122857D01*
X135072380Y-94218095D01*
X135024761Y-94313333D01*
X134977142Y-94360952D01*
X134881904Y-94408571D01*
X134691428Y-94456190D01*
X134453333Y-94456190D01*
X134262857Y-94408571D01*
X134167619Y-94360952D01*
X134120000Y-94313333D01*
X134072380Y-94218095D01*
X135072380Y-93456190D02*
X134405714Y-93456190D01*
X134500952Y-93456190D02*
X134453333Y-93408571D01*
X134405714Y-93313333D01*
X134405714Y-93170476D01*
X134453333Y-93075238D01*
X134548571Y-93027619D01*
X135072380Y-93027619D01*
X134548571Y-93027619D02*
X134453333Y-92980000D01*
X134405714Y-92884761D01*
X134405714Y-92741904D01*
X134453333Y-92646666D01*
X134548571Y-92599047D01*
X135072380Y-92599047D01*
X147224761Y-94527619D02*
X147129523Y-94480000D01*
X147034285Y-94384761D01*
X146891428Y-94241904D01*
X146796190Y-94194285D01*
X146700952Y-94194285D01*
X146748571Y-94432380D02*
X146653333Y-94384761D01*
X146558095Y-94289523D01*
X146510476Y-94099047D01*
X146510476Y-93765714D01*
X146558095Y-93575238D01*
X146653333Y-93480000D01*
X146748571Y-93432380D01*
X146939047Y-93432380D01*
X147034285Y-93480000D01*
X147129523Y-93575238D01*
X147177142Y-93765714D01*
X147177142Y-94099047D01*
X147129523Y-94289523D01*
X147034285Y-94384761D01*
X146939047Y-94432380D01*
X146748571Y-94432380D01*
X148129523Y-94432380D02*
X147558095Y-94432380D01*
X147843809Y-94432380D02*
X147843809Y-93432380D01*
X147748571Y-93575238D01*
X147653333Y-93670476D01*
X147558095Y-93718095D01*
X146034285Y-85812380D02*
X146034285Y-86526666D01*
X145986666Y-86669523D01*
X145891428Y-86764761D01*
X145748571Y-86812380D01*
X145653333Y-86812380D01*
X147034285Y-86812380D02*
X146462857Y-86812380D01*
X146748571Y-86812380D02*
X146748571Y-85812380D01*
X146653333Y-85955238D01*
X146558095Y-86050476D01*
X146462857Y-86098095D01*
X147986666Y-86812380D02*
X147415238Y-86812380D01*
X147700952Y-86812380D02*
X147700952Y-85812380D01*
X147605714Y-85955238D01*
X147510476Y-86050476D01*
X147415238Y-86098095D01*
X148320000Y-85812380D02*
X148939047Y-85812380D01*
X148605714Y-86193333D01*
X148748571Y-86193333D01*
X148843809Y-86240952D01*
X148891428Y-86288571D01*
X148939047Y-86383809D01*
X148939047Y-86621904D01*
X148891428Y-86717142D01*
X148843809Y-86764761D01*
X148748571Y-86812380D01*
X148462857Y-86812380D01*
X148367619Y-86764761D01*
X148320000Y-86717142D01*
X162226666Y-83399380D02*
X162226666Y-84113666D01*
X162179047Y-84256523D01*
X162083809Y-84351761D01*
X161940952Y-84399380D01*
X161845714Y-84399380D01*
X162655238Y-83494619D02*
X162702857Y-83447000D01*
X162798095Y-83399380D01*
X163036190Y-83399380D01*
X163131428Y-83447000D01*
X163179047Y-83494619D01*
X163226666Y-83589857D01*
X163226666Y-83685095D01*
X163179047Y-83827952D01*
X162607619Y-84399380D01*
X163226666Y-84399380D01*
X161726666Y-90892380D02*
X161917142Y-90892380D01*
X162012380Y-90940000D01*
X162107619Y-91035238D01*
X162155238Y-91225714D01*
X162155238Y-91559047D01*
X162107619Y-91749523D01*
X162012380Y-91844761D01*
X161917142Y-91892380D01*
X161726666Y-91892380D01*
X161631428Y-91844761D01*
X161536190Y-91749523D01*
X161488571Y-91559047D01*
X161488571Y-91225714D01*
X161536190Y-91035238D01*
X161631428Y-90940000D01*
X161726666Y-90892380D01*
X163012380Y-91225714D02*
X163012380Y-91892380D01*
X162583809Y-91225714D02*
X162583809Y-91749523D01*
X162631428Y-91844761D01*
X162726666Y-91892380D01*
X162869523Y-91892380D01*
X162964761Y-91844761D01*
X163012380Y-91797142D01*
X163345714Y-91225714D02*
X163726666Y-91225714D01*
X163488571Y-90892380D02*
X163488571Y-91749523D01*
X163536190Y-91844761D01*
X163631428Y-91892380D01*
X163726666Y-91892380D01*
X129206666Y-83399380D02*
X129206666Y-84113666D01*
X129159047Y-84256523D01*
X129063809Y-84351761D01*
X128920952Y-84399380D01*
X128825714Y-84399380D01*
X130206666Y-84399380D02*
X129635238Y-84399380D01*
X129920952Y-84399380D02*
X129920952Y-83399380D01*
X129825714Y-83542238D01*
X129730476Y-83637476D01*
X129635238Y-83685095D01*
X129087619Y-91892380D02*
X129087619Y-90892380D01*
X129563809Y-91225714D02*
X129563809Y-91892380D01*
X129563809Y-91320952D02*
X129611428Y-91273333D01*
X129706666Y-91225714D01*
X129849523Y-91225714D01*
X129944761Y-91273333D01*
X129992380Y-91368571D01*
X129992380Y-91892380D01*
X156063333Y-90400142D02*
X156015714Y-90447761D01*
X155872857Y-90495380D01*
X155777619Y-90495380D01*
X155634761Y-90447761D01*
X155539523Y-90352523D01*
X155491904Y-90257285D01*
X155444285Y-90066809D01*
X155444285Y-89923952D01*
X155491904Y-89733476D01*
X155539523Y-89638238D01*
X155634761Y-89543000D01*
X155777619Y-89495380D01*
X155872857Y-89495380D01*
X156015714Y-89543000D01*
X156063333Y-89590619D01*
X156444285Y-89590619D02*
X156491904Y-89543000D01*
X156587142Y-89495380D01*
X156825238Y-89495380D01*
X156920476Y-89543000D01*
X156968095Y-89590619D01*
X157015714Y-89685857D01*
X157015714Y-89781095D01*
X156968095Y-89923952D01*
X156396666Y-90495380D01*
X157015714Y-90495380D01*
X158337619Y-83637380D02*
X157766190Y-83637380D01*
X158051904Y-83637380D02*
X158051904Y-82637380D01*
X157956666Y-82780238D01*
X157861428Y-82875476D01*
X157766190Y-82923095D01*
X159194761Y-82970714D02*
X159194761Y-83637380D01*
X158766190Y-82970714D02*
X158766190Y-83494523D01*
X158813809Y-83589761D01*
X158909047Y-83637380D01*
X159051904Y-83637380D01*
X159147142Y-83589761D01*
X159194761Y-83542142D01*
X159528095Y-82970714D02*
X159909047Y-82970714D01*
X159670952Y-83637380D02*
X159670952Y-82780238D01*
X159718571Y-82685000D01*
X159813809Y-82637380D01*
X159909047Y-82637380D01*
X137033333Y-87177142D02*
X136985714Y-87224761D01*
X136842857Y-87272380D01*
X136747619Y-87272380D01*
X136604761Y-87224761D01*
X136509523Y-87129523D01*
X136461904Y-87034285D01*
X136414285Y-86843809D01*
X136414285Y-86700952D01*
X136461904Y-86510476D01*
X136509523Y-86415238D01*
X136604761Y-86320000D01*
X136747619Y-86272380D01*
X136842857Y-86272380D01*
X136985714Y-86320000D01*
X137033333Y-86367619D01*
X137985714Y-87272380D02*
X137414285Y-87272380D01*
X137700000Y-87272380D02*
X137700000Y-86272380D01*
X137604761Y-86415238D01*
X137509523Y-86510476D01*
X137414285Y-86558095D01*
X135700000Y-80272380D02*
X135795238Y-80272380D01*
X135890476Y-80320000D01*
X135938095Y-80367619D01*
X135985714Y-80462857D01*
X136033333Y-80653333D01*
X136033333Y-80891428D01*
X135985714Y-81081904D01*
X135938095Y-81177142D01*
X135890476Y-81224761D01*
X135795238Y-81272380D01*
X135700000Y-81272380D01*
X135604761Y-81224761D01*
X135557142Y-81177142D01*
X135509523Y-81081904D01*
X135461904Y-80891428D01*
X135461904Y-80653333D01*
X135509523Y-80462857D01*
X135557142Y-80367619D01*
X135604761Y-80320000D01*
X135700000Y-80272380D01*
X136461904Y-81177142D02*
X136509523Y-81224761D01*
X136461904Y-81272380D01*
X136414285Y-81224761D01*
X136461904Y-81177142D01*
X136461904Y-81272380D01*
X137461904Y-81272380D02*
X136890476Y-81272380D01*
X137176190Y-81272380D02*
X137176190Y-80272380D01*
X137080952Y-80415238D01*
X136985714Y-80510476D01*
X136890476Y-80558095D01*
X138319047Y-80605714D02*
X138319047Y-81272380D01*
X137890476Y-80605714D02*
X137890476Y-81129523D01*
X137938095Y-81224761D01*
X138033333Y-81272380D01*
X138176190Y-81272380D01*
X138271428Y-81224761D01*
X138319047Y-81177142D01*
X138652380Y-80605714D02*
X139033333Y-80605714D01*
X138795238Y-81272380D02*
X138795238Y-80415238D01*
X138842857Y-80320000D01*
X138938095Y-80272380D01*
X139033333Y-80272380D01*
M02*
